RobotoAvar2-XTUC244.ufo
<glyph name="J" format="2">
  <advance width="594"/>
  <unicode hex="004A"/>
  <anchor x="232" y="0" name="bottom"/>
  <anchor x="343" y="1456" name="top"/>
  <outline>
    <contour>
      <point x="25" y="400" type="qcurve" smooth="yes"/>
      <point x="25" y="410" type="line"/>
      <point x="217" y="410" type="line"/>
      <point x="217" y="400" type="line" smooth="yes"/>
      <point x="217" y="270"/>
      <point x="225" y="134"/>
      <point x="232" y="134" type="qcurve" smooth="yes"/>
      <point x="239" y="134"/>
      <point x="248" y="285"/>
      <point x="247" y="425" type="qcurve" smooth="yes"/>
      <point x="247" y="1456" type="line"/>
      <point x="439" y="1456" type="line"/>
      <point x="439" y="425" type="line" smooth="yes"/>
      <point x="439" y="215"/>
      <point x="342" y="-30"/>
      <point x="232" y="-30" type="qcurve" smooth="yes"/>
      <point x="122" y="-30"/>
      <point x="25" y="200"/>
    </contour>
  </outline>
</glyph>
<glyph name="K" format="2">
  <advance width="616"/>
  <unicode hex="004B"/>
  <anchor x="403" y="0" name="bottom"/>
  <anchor x="403" y="1456" name="top"/>
  <outline>
    <contour>
      <point x="170" y="0" type="line"/>
      <point x="170" y="1456" type="line"/>
      <point x="362" y="1456" type="line"/>
      <point x="362" y="0" type="line"/>
    </contour>
    <contour>
      <point x="402" y="0" type="line"/>
      <point x="295" y="776" type="line"/>
      <point x="416" y="920" type="line"/>
      <point x="636" y="0" type="line"/>
    </contour>
    <contour>
      <point x="265" y="284" type="line"/>
      <point x="265" y="634" type="line"/>
      <point x="393" y="1456" type="line"/>
      <point x="583" y="1456" type="line"/>
    </contour>
  </outline>
</glyph>
<glyph name="V" format="2">
  <advance width="422"/>
  <unicode hex="0056"/>
  <anchor x="215" y="0" name="bottom"/>
  <anchor x="215" y="1456" name="top"/>
  <outline>
    <contour>
      <point x="-5" y="1456" type="line"/>
      <point x="199" y="1456" type="line"/>
      <point x="208" y="486" type="line" smooth="yes"/>
      <point x="208" y="451"/>
      <point x="209" y="391"/>
      <point x="209" y="358" type="qcurve"/>
      <point x="219" y="358" type="line"/>
      <point x="219" y="391"/>
      <point x="220" y="451"/>
      <point x="220" y="486" type="qcurve" smooth="yes"/>
      <point x="231" y="1456" type="line"/>
      <point x="427" y="1456" type="line"/>
      <point x="301" y="-10" type="line"/>
      <point x="123" y="-10" type="line"/>
    </contour>
  </outline>
</glyph>
<glyph name="W" format="2">
  <advance width="852"/>
  <unicode hex="0057"/>
  <anchor x="476" y="0" name="bottom"/>
  <anchor x="476" y="1456" name="top"/>
  <outline>
    <contour>
      <point x="186" y="-10" type="line"/>
      <point x="50" y="1456" type="line"/>
      <point x="240" y="1456" type="line"/>
      <point x="270" y="374" type="line" smooth="yes"/>
      <point x="271" y="338"/>
      <point x="270" y="299"/>
      <point x="270" y="266" type="qcurve"/>
      <point x="280" y="266" type="line"/>
      <point x="280" y="299"/>
      <point x="278" y="338"/>
      <point x="280" y="374" type="qcurve" smooth="yes"/>
      <point x="331" y="1456" type="line"/>
      <point x="521" y="1456" type="line"/>
      <point x="573" y="374" type="line" smooth="yes"/>
      <point x="575" y="338"/>
      <point x="573" y="299"/>
      <point x="573" y="266" type="qcurve"/>
      <point x="583" y="266" type="line"/>
      <point x="583" y="299"/>
      <point x="582" y="338"/>
      <point x="583" y="374" type="qcurve" smooth="yes"/>
      <point x="615" y="1456" type="line"/>
      <point x="802" y="1456" type="line"/>
      <point x="667" y="-10" type="line"/>
      <point x="481" y="-10" type="line"/>
      <point x="431" y="1070" type="line" smooth="yes"/>
      <point x="429" y="1105"/>
      <point x="431" y="1165"/>
      <point x="431" y="1198" type="qcurve"/>
      <point x="421" y="1198" type="line"/>
      <point x="421" y="1165"/>
      <point x="423" y="1105"/>
      <point x="421" y="1070" type="qcurve" smooth="yes"/>
      <point x="371" y="-10" type="line"/>
    </contour>
  </outline>
</glyph>
<glyph name="X" format="2">
  <advance width="512"/>
  <unicode hex="0058"/>
  <anchor x="259" y="0" name="bottom"/>
  <anchor x="259" y="1456" name="top"/>
  <anchor x="287" y="0" name="cy_descender"/>
  <outline>
    <contour>
      <point x="25" y="0" type="line"/>
      <point x="204" y="867" type="line"/>
      <point x="216" y="867" type="line"/>
      <point x="278" y="1456" type="line"/>
      <point x="487" y="1456" type="line"/>
      <point x="313" y="574" type="line"/>
      <point x="302" y="574" type="line"/>
      <point x="234" y="0" type="line"/>
    </contour>
    <contour>
      <point x="25" y="1456" type="line"/>
      <point x="238" y="1456" type="line"/>
      <point x="306" y="866" type="line"/>
      <point x="318" y="866" type="line"/>
      <point x="487" y="0" type="line"/>
      <point x="273" y="0" type="line"/>
      <point x="215" y="571" type="line"/>
      <point x="205" y="571" type="line"/>
    </contour>
  </outline>
</glyph>
<glyph name="Y" format="2">
  <advance width="500"/>
  <unicode hex="0059"/>
  <anchor x="254" y="0" name="bottom"/>
  <anchor x="254" y="1456" name="top"/>
  <anchor x="-138" y="1074" name="tonos"/>
  <outline>
    <contour>
      <point x="155" y="0" type="line"/>
      <point x="155" y="544" type="line"/>
      <point x="15" y="1456" type="line"/>
      <point x="223" y="1456" type="line"/>
      <point x="243" y="870" type="line" smooth="yes"/>
      <point x="244" y="836"/>
      <point x="248" y="790"/>
      <point x="249" y="763" type="qcurve"/>
      <point x="256" y="763" type="line"/>
      <point x="257" y="790"/>
      <point x="261" y="836"/>
      <point x="262" y="870" type="qcurve" smooth="yes"/>
      <point x="287" y="1456" type="line"/>
      <point x="485" y="1456" type="line"/>
      <point x="347" y="544" type="line"/>
      <point x="347" y="0" type="line"/>
    </contour>
  </outline>
</glyph>
<glyph name="Z" format="2">
  <advance width="460"/>
  <unicode hex="005A"/>
  <anchor x="249" y="0" name="bottom"/>
  <anchor x="249" y="1456" name="top"/>
  <outline>
    <contour>
      <point x="65" y="0" type="line"/>
      <point x="65" y="140" type="line"/>
      <point x="156" y="1298" type="line"/>
      <point x="77" y="1298" type="line"/>
      <point x="77" y="1456" type="line"/>
      <point x="365" y="1456" type="line"/>
      <point x="365" y="1316" type="line"/>
      <point x="274" y="158" type="line"/>
      <point x="394" y="158" type="line"/>
      <point x="394" y="0" type="line"/>
    </contour>
  </outline>
</glyph>
<glyph name="n" format="2">
  <advance width="1138"/>
  <unicode hex="006E"/>
  <anchor x="569" y="0" name="bottom"/>
  <anchor x="569" y="1052" name="top"/>
  <anchor x="907" y="0" name="engtail"/>
  <outline>
    <contour>
      <point x="148" y="0" type="line"/>
      <point x="148" y="1052" type="line"/>
      <point x="316" y="1052" type="line"/>
      <point x="334" y="844" type="line"/>
      <point x="334" y="0" type="line"/>
    </contour>
    <contour>
      <point x="241" y="567" type="qcurve"/>
      <point x="241" y="746" type="line"/>
      <point x="312" y="932"/>
      <point x="533" y="1072"/>
      <point x="652" y="1072" type="qcurve" smooth="yes"/>
      <point x="811" y="1072"/>
      <point x="1000" y="891"/>
      <point x="1000" y="679" type="qcurve" smooth="yes"/>
      <point x="1000" y="0" type="line"/>
      <point x="814" y="0" type="line"/>
      <point x="814" y="681" type="line" smooth="yes"/>
      <point x="814" y="807"/>
      <point x="700" y="916"/>
      <point x="596" y="916" type="qcurve" smooth="yes"/>
      <point x="505" y="916"/>
      <point x="345" y="800"/>
    </contour>
  </outline>
</glyph>
<glyph name="Schwa" format="2">
  <advance width="635"/>
  <unicode hex="018F"/>
  <outline>
    <contour>
      <point x="332" y="-30" type="qcurve" smooth="yes"/>
      <point x="148" y="-30"/>
      <point x="102" y="311"/>
      <point x="102" y="726" type="qcurve" smooth="yes"/>
      <point x="102" y="784" type="line"/>
      <point x="411" y="784" type="line"/>
      <point x="411" y="622" type="line"/>
      <point x="311" y="627" type="line"/>
      <point x="296" y="624" type="line"/>
      <point x="296" y="567" type="line" smooth="yes"/>
      <point x="296" y="353"/>
      <point x="297" y="129"/>
      <point x="311" y="129" type="qcurve"/>
      <point x="324" y="129"/>
      <point x="328" y="462"/>
      <point x="326" y="749" type="qcurve" smooth="yes"/>
      <point x="324" y="1056"/>
      <point x="329" y="1316"/>
      <point x="316" y="1316" type="qcurve" smooth="yes"/>
      <point x="307" y="1316"/>
      <point x="308" y="1127"/>
      <point x="308" y="984" type="qcurve" smooth="yes"/>
      <point x="308" y="968" type="line"/>
      <point x="116" y="968" type="line"/>
      <point x="116" y="982" type="line" smooth="yes"/>
      <point x="116" y="1215"/>
      <point x="174" y="1489"/>
      <point x="316" y="1489" type="qcurve" smooth="yes"/>
      <point x="467" y="1489"/>
      <point x="520" y="1128"/>
      <point x="520" y="759" type="qcurve" smooth="yes"/>
      <point x="520" y="384"/>
      <point x="468" y="-30"/>
    </contour>
  </outline>
</glyph>
<glyph name="mu" format="2">
  <advance width="1206"/>
  <unicode hex="03BC"/>
  <outline>
    <contour>
      <point x="148" y="-416" type="line"/>
      <point x="148" y="1052" type="line"/>
      <point x="334" y="1052" type="line"/>
      <point x="334" y="-416" type="line"/>
    </contour>
    <contour>
      <point x="256" y="392" type="line"/>
      <point x="336" y="232"/>
      <point x="488" y="132"/>
      <point x="580" y="132" type="qcurve" smooth="yes"/>
      <point x="672" y="132"/>
      <point x="814" y="268"/>
      <point x="814" y="357" type="qcurve" smooth="yes"/>
      <point x="814" y="1052" type="line"/>
      <point x="1000" y="1052" type="line"/>
      <point x="1000" y="275" type="line" smooth="yes"/>
      <point x="1000" y="200"/>
      <point x="1046" y="143"/>
      <point x="1091" y="143" type="qcurve" smooth="yes"/>
      <point x="1111" y="143"/>
      <point x="1147" y="150"/>
      <point x="1164" y="157" type="qcurve"/>
      <point x="1164" y="5" type="line"/>
      <point x="1145" y="-4"/>
      <point x="1090" y="-17"/>
      <point x="1054" y="-17" type="qcurve" smooth="yes"/>
      <point x="955" y="-17"/>
      <point x="845" y="59"/>
      <point x="830" y="130" type="qcurve"/>
      <point x="824" y="130" type="line"/>
      <point x="788" y="68"/>
      <point x="654" y="-20"/>
      <point x="566" y="-20" type="qcurve" smooth="yes"/>
      <point x="466" y="-20"/>
      <point x="311" y="91"/>
      <point x="256" y="194" type="qcurve"/>
    </contour>
  </outline>
</glyph>
<glyph name="Ieukran" format="2">
  <advance width="616"/>
  <unicode hex="0404"/>
  <guideline x="211" y="787" angle="90.0" identifier="mFTeE97JTj"/>
  <outline>
    <contour>
      <point x="324" y="-30" type="qcurve" smooth="yes"/>
      <point x="194" y="-30"/>
      <point x="115" y="346"/>
      <point x="115" y="682" type="qcurve" smooth="yes"/>
      <point x="115" y="774" type="line" smooth="yes"/>
      <point x="115" y="1110"/>
      <point x="194" y="1486"/>
      <point x="324" y="1486" type="qcurve" smooth="yes"/>
      <point x="454" y="1486"/>
      <point x="532" y="1201"/>
      <point x="532" y="1000" type="qcurve" smooth="yes"/>
      <point x="532" y="990" type="line"/>
      <point x="340" y="990" type="line"/>
      <point x="340" y="1000" type="line" smooth="yes"/>
      <point x="340" y="1139"/>
      <point x="335" y="1322"/>
      <point x="324" y="1322" type="qcurve" smooth="yes"/>
      <point x="314" y="1322"/>
      <point x="309" y="1052"/>
      <point x="309" y="797" type="qcurve" smooth="yes"/>
      <point x="309" y="674" type="line" smooth="yes"/>
      <point x="309" y="426"/>
      <point x="314" y="134"/>
      <point x="324" y="134" type="qcurve" smooth="yes"/>
      <point x="334" y="134"/>
      <point x="339" y="320"/>
      <point x="339" y="456" type="qcurve" smooth="yes"/>
      <point x="339" y="466" type="line"/>
      <point x="531" y="466" type="line"/>
      <point x="531" y="456" type="line" smooth="yes"/>
      <point x="531" y="255"/>
      <point x="454" y="-30"/>
    </contour>
    <contour>
      <point x="212" y="672" type="line"/>
      <point x="212" y="830" type="line"/>
      <point x="336" y="830" type="line"/>
      <point x="336" y="672" type="line"/>
    </contour>
  </outline>
</glyph>
<glyph name="El" format="2">
  <advance width="622"/>
  <unicode hex="041B"/>
  <outline>
    <contour>
      <point x="60" y="1456" type="line"/>
      <point x="452" y="1456" type="line"/>
      <point x="452" y="0" type="line"/>
      <point x="260" y="0" type="line"/>
      <point x="260" y="1298" type="line"/>
      <point x="240" y="1298" type="line"/>
      <point x="231" y="542" type="line"/>
      <point x="227" y="258"/>
      <point x="154" y="-30"/>
      <point x="51" y="-30" type="qcurve" smooth="yes"/>
      <point x="44" y="-30"/>
      <point x="14" y="-23"/>
      <point x="11" y="-13" type="qcurve"/>
      <point x="11" y="151" type="line"/>
      <point x="14" y="143"/>
      <point x="21" y="138"/>
      <point x="27" y="138" type="qcurve" smooth="yes"/>
      <point x="36" y="138"/>
      <point x="50" y="336"/>
      <point x="52" y="575" type="qcurve"/>
    </contour>
  </outline>
</glyph>
<glyph name="Gheup" format="2">
  <advance width="487"/>
  <unicode hex="0490"/>
  <outline>
    <contour>
      <point x="170" y="0" type="line"/>
      <point x="170" y="1456" type="line"/>
      <point x="290" y="1456" type="line"/>
      <point x="290" y="1746" type="line"/>
      <point x="462" y="1746" type="line"/>
      <point x="462" y="1298" type="line"/>
      <point x="362" y="1298" type="line"/>
      <point x="362" y="0" type="line"/>
    </contour>
  </outline>
</glyph>
<glyph name="Kaverticalstrokecyr" format="2">
  <advance width="830"/>
  <unicode hex="049C"/>
  <guideline x="637" y="675" angle="90.0" identifier="5CJVZV5P4J"/>
  <outline>
    <contour>
      <point x="170" y="0" type="line"/>
      <point x="170" y="1456" type="line"/>
      <point x="362" y="1456" type="line"/>
      <point x="362" y="0" type="line"/>
    </contour>
    <contour>
      <point x="650" y="0" type="line"/>
      <point x="590" y="740" type="line"/>
      <point x="744" y="823" type="line"/>
      <point x="850" y="0" type="line"/>
    </contour>
    <contour>
      <point x="477" y="830" type="line"/>
      <point x="589" y="830" type="line"/>
      <point x="641" y="1456" type="line"/>
      <point x="827" y="1456" type="line"/>
      <point x="727" y="672" type="line"/>
      <point x="477" y="672" type="line"/>
    </contour>
    <contour>
      <point x="392" y="300" type="line"/>
      <point x="392" y="1156" type="line"/>
      <point x="562" y="1156" type="line"/>
      <point x="562" y="300" type="line"/>
    </contour>
  </outline>
</glyph>
<glyph name="Cheverticalstroke-cy" format="2">
  <advance width="924"/>
  <unicode hex="04B8"/>
  <outline>
    <contour>
      <point x="532.2873563218391" y="1106" type="line"/>
      <point x="532.2873563218391" y="250" type="line"/>
      <point x="362.28735632183907" y="250" type="line"/>
      <point x="362.28735632183907" y="1106" type="line"/>
    </contour>
    <contour>
      <point x="332.28735632183907" y="1032" type="line" smooth="yes"/>
      <point x="332.28735632183907" y="854"/>
      <point x="388" y="734"/>
      <point x="460.28735632183907" y="734" type="qcurve" smooth="yes"/>
      <point x="505" y="734"/>
      <point x="591.2873563218391" y="754"/>
      <point x="618.2873563218391" y="775" type="qcurve"/>
      <point x="618.2873563218391" y="617" type="line"/>
      <point x="588.2873563218391" y="595"/>
      <point x="500" y="576"/>
      <point x="445.28735632183907" y="576" type="qcurve" smooth="yes"/>
      <point x="299.28735632183907" y="576"/>
      <point x="135.28735632183907" y="807"/>
      <point x="140.28735632183907" y="1035" type="qcurve" smooth="yes"/>
      <point x="140.28735632183907" y="1456" type="line"/>
      <point x="332.28735632183907" y="1456" type="line"/>
    </contour>
    <contour>
      <point x="754.2873563218391" y="1456" type="line"/>
      <point x="754.2873563218391" y="0" type="line"/>
      <point x="562.2873563218391" y="0" type="line"/>
      <point x="562.2873563218391" y="1456" type="line"/>
    </contour>
  </outline>
</glyph>
<glyph name="Germandbls" format="2">
  <advance width="760"/>
  <unicode hex="1E9E"/>
  <outline>
    <contour>
      <point x="66" y="1066" type="line" smooth="yes"/>
      <point x="66" y="1267"/>
      <point x="183" y="1475"/>
      <point x="310" y="1475" type="qcurve" smooth="yes"/>
      <point x="418" y="1475"/>
      <point x="540" y="1313"/>
      <point x="540" y="1209" type="qcurve" smooth="yes"/>
      <point x="540" y="1113"/>
      <point x="527" y="1026"/>
      <point x="506" y="952" type="qcurve" smooth="yes"/>
      <point x="496" y="915"/>
      <point x="479" y="852"/>
      <point x="479" y="831" type="qcurve" smooth="yes"/>
      <point x="479" y="807"/>
      <point x="487" y="764"/>
      <point x="560" y="696" type="qcurve" smooth="yes"/>
      <point x="633" y="628"/>
      <point x="703" y="486"/>
      <point x="703" y="336" type="qcurve" smooth="yes"/>
      <point x="703" y="190"/>
      <point x="622" y="-30"/>
      <point x="502" y="-30" type="qcurve" smooth="yes"/>
      <point x="364" y="-30"/>
      <point x="273" y="152"/>
      <point x="273" y="338" type="qcurve" smooth="yes"/>
      <point x="273" y="350" type="line"/>
      <point x="476" y="350" type="line"/>
      <point x="476" y="338" type="line" smooth="yes"/>
      <point x="476" y="238"/>
      <point x="481" y="135"/>
      <point x="491" y="135" type="qcurve" smooth="yes"/>
      <point x="501" y="135"/>
      <point x="506" y="241"/>
      <point x="506" y="330" type="qcurve" smooth="yes"/>
      <point x="506" y="427"/>
      <point x="480" y="487"/>
      <point x="414" y="551" type="qcurve" smooth="yes"/>
      <point x="334" y="629"/>
      <point x="288" y="726"/>
      <point x="288" y="804" type="qcurve" smooth="yes"/>
      <point x="288" y="870"/>
      <point x="316" y="953"/>
      <point x="333" y="1012" type="qcurve" smooth="yes"/>
      <point x="346" y="1057"/>
      <point x="348" y="1137"/>
      <point x="348" y="1194" type="qcurve" smooth="yes"/>
      <point x="348" y="1249"/>
      <point x="320" y="1313"/>
      <point x="309" y="1313" type="qcurve" smooth="yes"/>
      <point x="297" y="1313"/>
      <point x="258" y="1198"/>
      <point x="258" y="1036" type="qcurve" smooth="yes"/>
      <point x="258" y="355" type="line" smooth="yes"/>
      <point x="258" y="184"/>
      <point x="204" y="-16"/>
      <point x="69" y="-16" type="qcurve" smooth="yes"/>
      <point x="59" y="-16"/>
      <point x="46" y="-14"/>
      <point x="38" y="-12" type="qcurve"/>
      <point x="36" y="172" type="line"/>
      <point x="40" y="169"/>
      <point x="45" y="167"/>
      <point x="49" y="167" type="qcurve" smooth="yes"/>
      <point x="61" y="167"/>
      <point x="66" y="264"/>
      <point x="66" y="355" type="qcurve" smooth="yes"/>
    </contour>
  </outline>
</glyph>
<glyph name="Zhe.bgr" format="2">
  <advance width="709"/>
  <outline>
    <contour>
      <point x="-20" y="0" type="line"/>
      <point x="239" y="890" type="line"/>
      <point x="359" y="756" type="line"/>
      <point x="210" y="0" type="line"/>
    </contour>
    <contour>
      <point x="258" y="0" type="line"/>
      <point x="258" y="1456" type="line"/>
      <point x="450" y="1456" type="line"/>
      <point x="450" y="0" type="line"/>
    </contour>
    <contour>
      <point x="494" y="0" type="line"/>
      <point x="350" y="756" type="line"/>
      <point x="470" y="890" type="line"/>
      <point x="724" y="0" type="line"/>
    </contour>
    <contour>
      <point x="-2" y="1456" type="line"/>
      <point x="229" y="1456" type="line"/>
      <point x="343" y="666" type="line"/>
      <point x="343" y="399" type="line"/>
    </contour>
    <contour>
      <point x="480" y="1456" type="line"/>
      <point x="711" y="1456" type="line"/>
      <point x="361" y="399" type="line"/>
      <point x="361" y="666" type="line"/>
    </contour>
  </outline>
</glyph>
<glyph name="acutecomb.case" format="2">
  <anchor x="0" y="1456" name="_top"/>
  <anchor x="0" y="1998" name="top"/>
  <outline>
    <contour>
      <point x="-64" y="1632" type="line"/>
      <point x="2" y="1998" type="line"/>
      <point x="169" y="1938" type="line"/>
      <point x="53" y="1597" type="line"/>
    </contour>
  </outline>
</glyph>
<glyph name="acutecombstack.case" format="2">
  <anchor x="0" y="1536" name="_top"/>
  <anchor x="0" y="1941" name="top"/>
  <outline>
    <contour>
      <point x="-204" y="1686" type="line"/>
      <point x="50" y="2019" type="line"/>
      <point x="157" y="1856" type="line"/>
      <point x="-126" y="1570" type="line"/>
    </contour>
  </outline>
</glyph>
<glyph name="brevecomb-stack.case" format="2">
  <anchor x="0.0" y="1456" name="_top"/>
  <anchor x="0" y="1828" name="top"/>
  <outline>
    <contour>
      <point x="44" y="1897" type="qcurve"/>
      <point x="154" y="1832" type="line"/>
      <point x="134" y="1732"/>
      <point x="51" y="1597"/>
      <point x="0" y="1597" type="qcurve"/>
      <point x="-51" y="1597"/>
      <point x="-134" y="1732"/>
      <point x="-154" y="1832" type="qcurve"/>
      <point x="-44" y="1897" type="line"/>
      <point x="-31" y="1843"/>
      <point x="-7" y="1756"/>
      <point x="0" y="1756" type="qcurve"/>
      <point x="7" y="1756"/>
      <point x="31" y="1843"/>
    </contour>
  </outline>
</glyph>
<glyph name="brevecomb.case" format="2">
  <anchor x="0" y="1456" name="_top"/>
  <anchor x="0" y="1936" name="top"/>
  <outline>
    <contour>
      <point x="0" y="1600" type="qcurve"/>
      <point x="-42" y="1600"/>
      <point x="-115" y="1753"/>
      <point x="-115" y="1867" type="qcurve"/>
      <point x="-15" y="1936" type="line"/>
      <point x="-15" y="1873"/>
      <point x="-5" y="1769"/>
      <point x="0" y="1769" type="qcurve"/>
      <point x="5" y="1769"/>
      <point x="15" y="1873"/>
      <point x="15" y="1936" type="qcurve"/>
      <point x="115" y="1867" type="line"/>
      <point x="115" y="1753"/>
      <point x="42" y="1600"/>
    </contour>
  </outline>
</glyph>
<glyph name="brevecombstack.case" format="2">
  <anchor x="0" y="1536" name="_top"/>
  <anchor x="0" y="1910" name="top"/>
  <outline>
    <contour>
      <point x="0" y="1610" type="qcurve"/>
      <point x="-48" y="1610"/>
      <point x="-115" y="1731"/>
      <point x="-115" y="1845" type="qcurve"/>
      <point x="-15" y="1910" type="line"/>
      <point x="-11" y="1847"/>
      <point x="-5" y="1769"/>
      <point x="0" y="1769" type="qcurve"/>
      <point x="5" y="1769"/>
      <point x="10" y="1847"/>
      <point x="15" y="1910" type="qcurve"/>
      <point x="115" y="1845" type="line"/>
      <point x="115" y="1731"/>
      <point x="48" y="1610"/>
    </contour>
  </outline>
</glyph>
<glyph name="breveinvertedcomb-stack.case" format="2">
  <anchor x="0" y="1456" name="_top"/>
  <anchor x="0" y="1906" name="top"/>
  <outline>
    <contour>
      <point x="-15" y="1606" type="qcurve"/>
      <point x="-125" y="1671" type="line"/>
      <point x="-125" y="1771"/>
      <point x="-51" y="1906"/>
      <point x="0" y="1906" type="qcurve" smooth="yes"/>
      <point x="51" y="1906"/>
      <point x="125" y="1771"/>
      <point x="125" y="1671" type="qcurve"/>
      <point x="15" y="1606" type="line"/>
      <point x="15" y="1660"/>
      <point x="7" y="1747"/>
      <point x="0" y="1747" type="qcurve" smooth="yes"/>
      <point x="-7" y="1747"/>
      <point x="-15" y="1660"/>
    </contour>
  </outline>
</glyph>
<glyph name="breveinvertedcomb.case" format="2">
  <anchor x="0" y="1456" name="_top"/>
  <anchor x="0" y="1936" name="top"/>
  <outline>
    <contour>
      <point x="-15" y="1600" type="qcurve"/>
      <point x="-115" y="1669" type="line"/>
      <point x="-115" y="1783"/>
      <point x="-42" y="1936"/>
      <point x="0" y="1936" type="qcurve"/>
      <point x="42" y="1936"/>
      <point x="115" y="1783"/>
      <point x="115" y="1669" type="qcurve"/>
      <point x="15" y="1600" type="line"/>
      <point x="15" y="1663"/>
      <point x="5" y="1767"/>
      <point x="0" y="1767" type="qcurve"/>
      <point x="-5" y="1767"/>
      <point x="-15" y="1663"/>
    </contour>
  </outline>
</glyph>
<glyph name="caroncomb-stack.case" format="2">
  <anchor x="0.0" y="1456" name="_top"/>
  <anchor x="0.0" y="1880" name="top"/>
  <outline>
    <contour>
      <point x="-71" y="1590" type="line"/>
      <point x="-180" y="1880" type="line"/>
      <point x="-18" y="1880" type="line"/>
      <point x="-3" y="1743" type="line"/>
      <point x="12" y="1880" type="line"/>
      <point x="180" y="1880" type="line"/>
      <point x="73" y="1590" type="line"/>
    </contour>
  </outline>
</glyph>
<glyph name="cedillacomb.case" format="2">
  <anchor x="0" y="0" name="_bottom"/>
  <anchor x="0" y="-517" name="bottom"/>
  <outline>
    <contour>
      <point x="-82" y="20" type="line"/>
      <point x="57" y="20" type="line"/>
      <point x="29" y="-105" type="line"/>
      <point x="47" y="-118"/>
      <point x="106" y="-211"/>
      <point x="106" y="-288" type="qcurve" smooth="yes"/>
      <point x="106" y="-391"/>
      <point x="-29" y="-517"/>
      <point x="-126" y="-517" type="qcurve"/>
      <point x="-133" y="-381" type="line"/>
      <point x="-123" y="-382"/>
      <point x="-92" y="-343"/>
      <point x="-92" y="-290" type="qcurve" smooth="yes"/>
      <point x="-92" y="-241"/>
      <point x="-110" y="-203"/>
      <point x="-123" y="-197" type="qcurve"/>
    </contour>
  </outline>
</glyph>
<glyph name="dblgravecomb-stack.case" format="2">
  <anchor x="0" y="1456" name="_top"/>
  <anchor x="0" y="1974" name="top"/>
  <outline>
    <contour>
      <point x="-144" y="1597" type="line"/>
      <point x="-245" y="1923" type="line"/>
      <point x="-83" y="1998" type="line"/>
      <point x="-17" y="1632" type="line"/>
    </contour>
    <contour>
      <point x="5" y="1597" type="line"/>
      <point x="-96" y="1923" type="line"/>
      <point x="66" y="1998" type="line"/>
      <point x="132" y="1632" type="line"/>
    </contour>
  </outline>
</glyph>
<glyph name="dblgravecomb.case" format="2">
  <anchor x="0" y="1456" name="_top"/>
  <anchor x="0" y="1974" name="top"/>
  <outline>
    <contour>
      <point x="-114" y="1597" type="line"/>
      <point x="-230" y="1938" type="line"/>
      <point x="-63" y="1998" type="line"/>
      <point x="3" y="1632" type="line"/>
    </contour>
    <contour>
      <point x="35" y="1597" type="line"/>
      <point x="-81" y="1938" type="line"/>
      <point x="86" y="1998" type="line"/>
      <point x="152" y="1632" type="line"/>
    </contour>
  </outline>
</glyph>
<glyph name="diagonalbarO" format="2">
  <advance width="623"/>
  <outline>
    <contour>
      <point x="73" y="-129" type="line"/>
      <point x="146" y="243" type="line"/>
      <point x="165" y="238" type="line"/>
      <point x="264" y="793" type="line"/>
      <point x="382" y="752" type="line"/>
      <point x="257" y="40" type="line"/>
      <point x="276" y="35" type="line"/>
      <point x="243" y="-129" type="line"/>
    </contour>
    <contour>
      <point x="382" y="1598" type="line"/>
      <point x="553" y="1598" type="line"/>
      <point x="495" y="1298" type="line"/>
      <point x="475" y="1302" type="line"/>
      <point x="382" y="752" type="line"/>
      <point x="264" y="793" type="line"/>
      <point x="370" y="1435" type="line"/>
      <point x="349" y="1439" type="line"/>
    </contour>
  </outline>
</glyph>
<glyph name="dieresisbelowcomb.case" format="2">
  <anchor x="0" y="0" name="_bottom"/>
  <anchor x="0" y="-298" name="bottom"/>
  <outline>
    <contour>
      <point x="-219" y="-171" type="qcurve" smooth="yes"/>
      <point x="-219" y="-130"/>
      <point x="-165" y="-71"/>
      <point x="-114" y="-71" type="qcurve" smooth="yes"/>
      <point x="-62" y="-71"/>
      <point x="-7" y="-130"/>
      <point x="-7" y="-171" type="qcurve" smooth="yes"/>
      <point x="-7" y="-214"/>
      <point x="-62" y="-273"/>
      <point x="-114" y="-273" type="qcurve" smooth="yes"/>
      <point x="-165" y="-273"/>
      <point x="-219" y="-214"/>
    </contour>
    <contour>
      <point x="6" y="-171" type="qcurve" smooth="yes"/>
      <point x="6" y="-130"/>
      <point x="60" y="-71"/>
      <point x="112" y="-71" type="qcurve" smooth="yes"/>
      <point x="163" y="-71"/>
      <point x="218" y="-130"/>
      <point x="218" y="-171" type="qcurve" smooth="yes"/>
      <point x="218" y="-214"/>
      <point x="163" y="-273"/>
      <point x="112" y="-273" type="qcurve" smooth="yes"/>
      <point x="60" y="-273"/>
      <point x="6" y="-214"/>
    </contour>
  </outline>
</glyph>
<glyph name="dieresiscomb-stack.case" format="2">
  <anchor x="0.0" y="1456" name="_top"/>
  <anchor x="0.0" y="1782" name="top"/>
  <outline>
    <contour>
      <point x="-219" y="1706" type="qcurve" smooth="yes"/>
      <point x="-219" y="1747"/>
      <point x="-165" y="1806"/>
      <point x="-114" y="1806" type="qcurve" smooth="yes"/>
      <point x="-62" y="1806"/>
      <point x="-7" y="1747"/>
      <point x="-7" y="1706" type="qcurve" smooth="yes"/>
      <point x="-7" y="1663"/>
      <point x="-62" y="1604"/>
      <point x="-114" y="1604" type="qcurve" smooth="yes"/>
      <point x="-165" y="1604"/>
      <point x="-219" y="1663"/>
    </contour>
    <contour>
      <point x="6" y="1706" type="qcurve" smooth="yes"/>
      <point x="6" y="1747"/>
      <point x="60" y="1806"/>
      <point x="112" y="1806" type="qcurve" smooth="yes"/>
      <point x="163" y="1806"/>
      <point x="218" y="1747"/>
      <point x="218" y="1706" type="qcurve" smooth="yes"/>
      <point x="218" y="1663"/>
      <point x="163" y="1604"/>
      <point x="112" y="1604" type="qcurve" smooth="yes"/>
      <point x="60" y="1604"/>
      <point x="6" y="1663"/>
    </contour>
  </outline>
</glyph>
<glyph name="dotaccentcombstack.case" format="2">
  <anchor x="0" y="1536" name="_top"/>
  <anchor x="0" y="1812" name="top"/>
  <outline>
    <contour>
      <point x="-117" y="1725" type="qcurve" smooth="yes"/>
      <point x="-117" y="1773"/>
      <point x="-58" y="1835"/>
      <point x="0" y="1835" type="qcurve" smooth="yes"/>
      <point x="55" y="1835"/>
      <point x="115" y="1773"/>
      <point x="115" y="1725" type="qcurve" smooth="yes"/>
      <point x="115" y="1678"/>
      <point x="55" y="1614"/>
      <point x="0" y="1614" type="qcurve" smooth="yes"/>
      <point x="-58" y="1614"/>
      <point x="-117" y="1678"/>
    </contour>
  </outline>
</glyph>
<glyph name="dotbelowcomb.case" format="2">
  <anchor x="0" y="0" name="_bottom"/>
  <anchor x="0" y="-407" name="bottom"/>
  <outline>
    <contour>
      <point x="-105" y="-284" type="qcurve" smooth="yes"/>
      <point x="-105" y="-241"/>
      <point x="-52" y="-185"/>
      <point x="0" y="-185" type="qcurve" smooth="yes"/>
      <point x="49" y="-185"/>
      <point x="103" y="-241"/>
      <point x="103" y="-284" type="qcurve" smooth="yes"/>
      <point x="103" y="-326"/>
      <point x="49" y="-383"/>
      <point x="0" y="-383" type="qcurve" smooth="yes"/>
      <point x="-52" y="-383"/>
      <point x="-105" y="-326"/>
    </contour>
  </outline>
</glyph>
<glyph name="gravecomb.case" format="2">
  <anchor x="0" y="1455" name="_top"/>
  <anchor x="0" y="1974" name="top"/>
  <outline>
    <contour>
      <point x="-53" y="1597" type="line"/>
      <point x="-169" y="1938" type="line"/>
      <point x="-2" y="1998" type="line"/>
      <point x="64" y="1632" type="line"/>
    </contour>
  </outline>
</glyph>
<glyph name="hookabovecomb.case" format="2">
  <anchor x="0" y="1456" name="_top"/>
  <anchor x="0" y="2072" name="top"/>
  <outline>
    <contour>
      <point x="-138" y="1600" type="line"/>
      <point x="-138" y="1639" type="line" smooth="yes"/>
      <point x="-138" y="1691"/>
      <point x="-74" y="1761"/>
      <point x="-32" y="1768" type="qcurve"/>
      <point x="-21" y="1771"/>
      <point x="-17" y="1789"/>
      <point x="-17" y="1811" type="qcurve" smooth="yes"/>
      <point x="-17" y="1843"/>
      <point x="-58" y="1851"/>
      <point x="-80" y="1851" type="qcurve" smooth="yes"/>
      <point x="-116" y="1851"/>
      <point x="-174" y="1824"/>
      <point x="-183" y="1817" type="qcurve"/>
      <point x="-237" y="1941" type="line"/>
      <point x="-207" y="1959"/>
      <point x="-105" y="1994"/>
      <point x="-50" y="1994" type="qcurve" smooth="yes"/>
      <point x="39" y="1994"/>
      <point x="146" y="1908"/>
      <point x="146" y="1819" type="qcurve" smooth="yes"/>
      <point x="146" y="1734"/>
      <point x="51" y="1636"/>
      <point x="-15" y="1631" type="qcurve"/>
      <point x="-15" y="1600" type="line"/>
    </contour>
  </outline>
</glyph>
<glyph name="hookabovecombstack.case" format="2">
  <anchor x="0" y="1536" name="_top"/>
  <anchor x="0" y="1968" name="top"/>
  <outline>
    <contour>
      <point x="-152" y="1554" type="line"/>
      <point x="-152" y="1593" type="line" smooth="yes"/>
      <point x="-152" y="1641"/>
      <point x="-131" y="1678"/>
      <point x="-101" y="1686" type="qcurve" smooth="yes"/>
      <point x="-88" y="1689"/>
      <point x="-82" y="1709"/>
      <point x="-82" y="1728" type="qcurve" smooth="yes"/>
      <point x="-82" y="1735"/>
      <point x="-89" y="1738"/>
      <point x="-93" y="1738" type="qcurve" smooth="yes"/>
      <point x="-106" y="1738"/>
      <point x="-131" y="1715"/>
      <point x="-138" y="1697" type="qcurve"/>
      <point x="-178" y="1822" type="line"/>
      <point x="-152" y="1851"/>
      <point x="-92" y="1882"/>
      <point x="-57" y="1882" type="qcurve" smooth="yes"/>
      <point x="-9" y="1882"/>
      <point x="75" y="1803"/>
      <point x="75" y="1733" type="qcurve" smooth="yes"/>
      <point x="75" y="1681"/>
      <point x="19" y="1593"/>
      <point x="-29" y="1585" type="qcurve"/>
      <point x="-29" y="1554" type="line"/>
    </contour>
  </outline>
</glyph>
<glyph name="hookcomb-stack.case" format="2">
  <anchor x="0" y="1456" name="_top"/>
  <anchor x="0" y="1928" name="top"/>
  <anchor x="0" y="1456" name="_topright"/>
  <outline>
    <contour>
      <point x="-80" y="1600" type="line"/>
      <point x="-80" y="1639" type="line" smooth="yes"/>
      <point x="-80" y="1687"/>
      <point x="-59" y="1724"/>
      <point x="-29" y="1732" type="qcurve" smooth="yes"/>
      <point x="-16" y="1735"/>
      <point x="-10" y="1755"/>
      <point x="-10" y="1774" type="qcurve" smooth="yes"/>
      <point x="-10" y="1781"/>
      <point x="-17" y="1784"/>
      <point x="-21" y="1784" type="qcurve" smooth="yes"/>
      <point x="-34" y="1784"/>
      <point x="-59" y="1761"/>
      <point x="-66" y="1743" type="qcurve"/>
      <point x="-106" y="1868" type="line"/>
      <point x="-80" y="1897"/>
      <point x="-20" y="1928"/>
      <point x="15" y="1928" type="qcurve" smooth="yes"/>
      <point x="63" y="1928"/>
      <point x="147" y="1849"/>
      <point x="147" y="1779" type="qcurve" smooth="yes"/>
      <point x="147" y="1727"/>
      <point x="91" y="1639"/>
      <point x="43" y="1631" type="qcurve"/>
      <point x="43" y="1600" type="line"/>
    </contour>
  </outline>
</glyph>
<glyph name="horncomb.case" format="2">
  <anchor x="0" y="1456" name="_topright"/>
  <anchor x="0" y="1694" name="topright"/>
  <outline>
    <contour>
      <point x="0" y="1456" type="line"/>
      <point x="15" y="1456" type="line" smooth="yes"/>
      <point x="25" y="1456"/>
      <point x="30" y="1490"/>
      <point x="30" y="1542" type="qcurve" smooth="yes"/>
      <point x="30" y="1588"/>
      <point x="17" y="1658"/>
      <point x="7" y="1694" type="qcurve"/>
      <point x="153" y="1694" type="line"/>
      <point x="173" y="1661"/>
      <point x="206" y="1561"/>
      <point x="206" y="1497" type="qcurve" smooth="yes"/>
      <point x="206" y="1409"/>
      <point x="108" y="1324"/>
      <point x="52" y="1324" type="qcurve" smooth="yes"/>
      <point x="34" y="1324"/>
      <point x="8" y="1336"/>
      <point x="0" y="1345" type="qcurve"/>
    </contour>
  </outline>
</glyph>
<glyph name="hungarumlautcomb-stack.case" format="2">
  <anchor x="0" y="1456" name="_top"/>
  <anchor x="0" y="1995" name="top"/>
  <outline>
    <contour>
      <point x="-173" y="1632" type="line"/>
      <point x="-107" y="1998" type="line"/>
      <point x="55" y="1923" type="line"/>
      <point x="-46" y="1597" type="line"/>
    </contour>
    <contour>
      <point x="-24" y="1632" type="line"/>
      <point x="42" y="1998" type="line"/>
      <point x="204" y="1923" type="line"/>
      <point x="103" y="1597" type="line"/>
    </contour>
  </outline>
</glyph>
<glyph name="ogonekcomb.case" format="2">
  <anchor x="50" y="0" name="_ogonek"/>
  <anchor x="-1" y="-497" name="bottom"/>
  <outline>
    <contour>
      <point x="-152" y="-306" type="qcurve" smooth="yes"/>
      <point x="-152" y="-217"/>
      <point x="-102" y="-41"/>
      <point x="-45" y="51" type="qcurve"/>
      <point x="50" y="0" type="line"/>
      <point x="26" y="-105"/>
      <point x="20" y="-199"/>
      <point x="20" y="-244" type="qcurve" smooth="yes"/>
      <point x="20" y="-292"/>
      <point x="32" y="-347"/>
      <point x="45" y="-347" type="qcurve" smooth="yes"/>
      <point x="56" y="-347"/>
      <point x="69" y="-301"/>
      <point x="77" y="-254" type="qcurve"/>
      <point x="154" y="-357" type="line"/>
      <point x="148" y="-412"/>
      <point x="64" y="-497"/>
      <point x="8" y="-497" type="qcurve" smooth="yes"/>
      <point x="-62" y="-497"/>
      <point x="-152" y="-390"/>
    </contour>
  </outline>
</glyph>
<glyph name="ringcomb-stack.case" format="2">
  <anchor x="0.0" y="1456" name="_top"/>
  <anchor x="0.0" y="1846" name="top"/>
  <outline>
    <contour>
      <point x="-180" y="1748" type="qcurve" smooth="yes"/>
      <point x="-180" y="1826"/>
      <point x="-78" y="1925"/>
      <point x="0" y="1925" type="qcurve" smooth="yes"/>
      <point x="78" y="1925"/>
      <point x="180" y="1826"/>
      <point x="180" y="1748" type="qcurve" smooth="yes"/>
      <point x="180" y="1670"/>
      <point x="78" y="1570"/>
      <point x="0" y="1570" type="qcurve"/>
      <point x="-78" y="1570"/>
      <point x="-180" y="1670"/>
    </contour>
    <contour>
      <point x="-48" y="1748" type="qcurve" smooth="yes"/>
      <point x="-48" y="1726"/>
      <point x="-22" y="1699"/>
      <point x="0" y="1699" type="qcurve" smooth="yes"/>
      <point x="23" y="1699"/>
      <point x="48" y="1725"/>
      <point x="48" y="1748" type="qcurve" smooth="yes"/>
      <point x="48" y="1771"/>
      <point x="22" y="1798"/>
      <point x="0" y="1798" type="qcurve" smooth="yes"/>
      <point x="-23" y="1798"/>
      <point x="-48" y="1771"/>
    </contour>
  </outline>
</glyph>
<glyph name="tildecomb-stack.case" format="2">
  <anchor x="0" y="1456" name="_top"/>
  <anchor x="0" y="1861" name="top"/>
  <outline>
    <contour>
      <point x="-162" y="1715" type="line"/>
      <point x="-144" y="1787"/>
      <point x="-87" y="1861"/>
      <point x="-56" y="1861" type="qcurve" smooth="yes"/>
      <point x="-40" y="1861"/>
      <point x="-7" y="1839"/>
      <point x="10" y="1813" type="qcurve" smooth="yes"/>
      <point x="24" y="1791"/>
      <point x="54" y="1756"/>
      <point x="69" y="1756" type="qcurve" smooth="yes"/>
      <point x="87" y="1756"/>
      <point x="109" y="1796"/>
      <point x="118" y="1835" type="qcurve"/>
      <point x="161" y="1744" type="line"/>
      <point x="147" y="1670"/>
      <point x="94" y="1596"/>
      <point x="65" y="1596" type="qcurve" smooth="yes"/>
      <point x="42" y="1596"/>
      <point x="4" y="1631"/>
      <point x="-9" y="1651" type="qcurve" smooth="yes"/>
      <point x="-24" y="1672"/>
      <point x="-53" y="1709"/>
      <point x="-64" y="1709" type="qcurve" smooth="yes"/>
      <point x="-81" y="1709"/>
      <point x="-109" y="1654"/>
      <point x="-117" y="1624" type="qcurve"/>
    </contour>
  </outline>
</glyph>
<glyph name="tonoscomb.case" format="2">
  <anchor x="36" y="1052" name="_tonos"/>
  <outline>
    <contour>
      <point x="79" y="1052" type="line"/>
      <point x="-44" y="1082" type="line"/>
      <point x="-14" y="1454" type="line"/>
      <point x="171" y="1435" type="line"/>
    </contour>
  </outline>
</glyph>
